<?xml version="1.0" encoding="UTF-8"?>
<svg id="_лой_2" data-name="Слой 2" xmlns="http://www.w3.org/2000/svg" width="1405.22" height="1265.39" viewBox="0 0 1405.22 1265.39">
  <defs>
    <style>
      .cls-1 {
        fill: aqua;
      }

      .cls-2 {
        fill: red;
      }

      .cls-3 {
        fill: #1b1464;
      }
    </style>
  </defs>
  <g id="Layer_1" data-name="Layer 1">
    <g>
      <g>
        <path class="cls-1" d="M308.5,682.89c-2.43,0-4.62-1.69-5.17-4.16-.11-.52-11.37-52.57-11.37-113.04,0-53.7,10.52-105.8,31.26-154.85,20.04-47.37,48.72-89.91,85.25-126.45,36.53-36.53,79.08-65.22,126.45-85.25,49.05-20.75,101.15-31.26,154.85-31.26,2.92,0,5.29,2.37,5.29,5.29s-2.37,5.29-5.29,5.29c-213.52,0-387.22,173.71-387.22,387.22,0,59.28,11.01,110.26,11.12,110.77,.63,2.86-1.18,5.68-4.04,6.3-.38,.08-.76,.12-1.14,.12Z"/>
        <path class="cls-2" d="M1071.05,682.89c-.37,0-.76-.04-1.14-.12-2.86-.63-4.66-3.45-4.04-6.3,.11-.51,11.12-51.5,11.12-110.77,0-200.65-156.49-370.2-356.26-386-2.92-.23-5.09-2.78-4.86-5.69,.23-2.92,2.8-5.08,5.69-4.86,99.44,7.87,191.71,52.61,259.82,125.98,68.48,73.77,106.19,169.86,106.19,270.58,0,60.47-11.26,112.52-11.37,113.04-.54,2.47-2.73,4.16-5.17,4.16Z"/>
        <path class="cls-2" d="M1034.25,674.85c-.37,0-.75-.04-1.13-.12-2.86-.62-4.67-3.44-4.05-6.29,.09-.44,9.46-44.28,10.21-96.17,.04-2.9,2.4-5.22,5.29-5.22,.03,0,.05,0,.08,0,2.92,.04,5.26,2.45,5.22,5.37-.77,53.07-10.36,97.81-10.45,98.26-.54,2.48-2.73,4.17-5.17,4.17Z"/>
        <path class="cls-1" d="M345.3,674.85c-2.44,0-4.63-1.69-5.17-4.17-.1-.48-10.5-48.97-10.5-105,0-198.59,161.56-360.15,360.14-360.15,91.8,0,179.3,34.69,246.36,97.67,66.76,62.7,106.88,147.27,112.97,238.13,.2,2.92-2.01,5.44-4.93,5.64-2.93,.19-5.44-2.01-5.64-4.93-12.26-182.76-165.45-325.93-348.77-325.93-192.75,0-349.56,156.81-349.56,349.56,0,54.73,10.16,102.28,10.26,102.75,.62,2.86-1.19,5.67-4.05,6.3-.38,.08-.76,.12-1.13,.12Z"/>
        <path class="cls-2" d="M964.08,667.16c-.36,0-.73-.04-1.1-.12-2.86-.6-4.69-3.41-4.09-6.27h0c.08-.4,8.49-40.92,8.49-87.09,0-66.88-23.29-131.88-65.58-183.01-1.86-2.25-1.55-5.59,.7-7.45,2.25-1.86,5.59-1.55,7.45,.71,43.85,53.03,68.01,120.42,68.01,189.76,0,47.41-8.63,88.86-8.72,89.28-.53,2.49-2.73,4.2-5.17,4.2Z"/>
        <path class="cls-1" d="M415.47,667.16c-2.45,0-4.65-1.71-5.17-4.2-.09-.41-8.72-41.87-8.72-89.28,0-162.34,129.28-294.42,288.19-294.42,74.29,0,144.88,28.91,198.77,81.42,2.09,2.04,2.14,5.39,.1,7.49-2.04,2.09-5.39,2.14-7.49,.1-51.9-50.56-119.86-78.41-191.38-78.41-153.07,0-277.61,127.33-277.61,283.83,0,46.17,8.41,86.69,8.49,87.09,.6,2.86-1.23,5.67-4.09,6.27-.37,.08-.74,.11-1.1,.11Z"/>
        <g>
          <ellipse class="cls-3" cx="329.19" cy="850.29" rx="113.38" ry="162.82" transform="translate(-142.65 70.08) rotate(-10)"/>
          <path class="cls-1" d="M343.39,1017.17c-26.76,0-53.59-12.39-76.91-35.84-27.18-27.33-46.42-66.54-54.16-110.43-7.74-43.89-3.08-87.32,13.12-122.29,16.5-35.62,42.98-58.31,74.56-63.88,31.58-5.57,64.22,6.69,91.91,34.52,27.18,27.33,46.42,66.54,54.16,110.43,7.74,43.89,3.08,87.32-13.12,122.29-16.5,35.62-42.98,58.31-74.56,63.88-4.98,.88-9.99,1.31-15,1.31Zm-28.49-323.15c-4.35,0-8.7,.37-13.06,1.14-28.07,4.95-51.79,25.51-66.79,57.9-15.3,33.03-19.67,74.23-12.3,116.01,13.96,79.19,66.45,137.5,120.74,137.51,4.35,0,8.7-.37,13.06-1.14,58.69-10.35,94.17-88.36,79.09-173.91-13.96-79.19-66.45-137.51-120.74-137.51Z"/>
        </g>
        <g>
          <ellipse class="cls-3" cx="410.35" cy="835.98" rx="144.76" ry="207.89" transform="translate(-138.94 83.96) rotate(-10)"/>
          <path class="cls-1" d="M419.34,1048.47c-38.03,0-70.61-15.02-97.14-44.86-28.28-31.81-48.9-80.77-59.62-141.57-10.72-60.8-8.09-113.86,7.61-153.43,18.22-45.93,52.93-73.71,103.15-82.57,50.22-8.86,92.34,5.38,125.17,42.31,28.28,31.81,48.9,80.77,59.62,141.57,10.72,60.8,8.09,113.86-7.61,153.42-18.22,45.93-52.93,73.72-103.15,82.57-9.64,1.7-18.99,2.55-28.03,2.55Zm-45.09-417.22l.92,5.21c-46.36,8.17-78.37,33.76-95.15,76.05-14.97,37.74-17.4,88.81-7.02,147.68,10.38,58.87,30.13,106.03,57.11,136.38,30.23,34,69.06,47.09,115.42,38.92,46.36-8.17,78.37-33.76,95.15-76.05,14.97-37.75,17.4-88.81,7.02-147.68-10.38-58.87-30.13-106.03-57.11-136.38-30.23-34-69.06-47.09-115.42-38.92l-.92-5.21Z"/>
        </g>
        <g>
          <ellipse class="cls-3" cx="1050.36" cy="850.29" rx="162.82" ry="113.38" transform="translate(30.59 1737.04) rotate(-80)"/>
          <path class="cls-2" d="M1036.17,1017.17c-5.01,0-10.02-.43-15-1.31-31.58-5.57-58.06-28.25-74.56-63.88-16.2-34.98-20.86-78.41-13.12-122.29l5.21,.92-5.21-.92c7.74-43.89,26.97-83.1,54.16-110.43,27.69-27.83,60.33-40.09,91.91-34.52,31.58,5.57,58.06,28.25,74.56,63.88,16.2,34.98,20.86,78.41,13.12,122.29-7.74,43.89-26.97,83.1-54.16,110.43-23.32,23.44-50.15,35.84-76.91,35.84Zm28.49-323.15c-54.29,0-106.77,58.31-120.74,137.51-15.08,85.54,20.4,163.55,79.09,173.91,58.69,10.34,118.72-50.83,133.8-136.37,7.37-41.78,3-82.97-12.3-116.01-15-32.39-38.72-52.95-66.79-57.9-4.35-.77-8.71-1.14-13.06-1.14Z"/>
        </g>
        <path class="cls-2" d="M877.93,1149.74c-2.92,0-5.29-2.37-5.29-5.29s2.37-5.29,5.29-5.29c138.39,0,153.27-92.44,158.87-127.24,.76-4.71,1.36-8.43,2.1-11.06,.8-2.81,3.72-4.44,6.54-3.65,2.81,.8,4.45,3.72,3.65,6.54-.58,2.04-1.16,5.66-1.84,9.86-2.94,18.28-8.42,52.29-31.71,81.79-28.47,36.07-74.77,54.35-137.62,54.35Z"/>
        <g>
          <rect class="cls-3" x="789.22" y="1117.34" width="88.7" height="54.22" rx="27.11" ry="27.11"/>
          <path class="cls-2" d="M850.81,1176.85h-34.48c-17.87,0-32.4-14.54-32.4-32.4s14.54-32.4,32.4-32.4h34.48c17.87,0,32.4,14.54,32.4,32.4s-14.54,32.4-32.4,32.4Zm-34.48-54.22c-12.03,0-21.82,9.79-21.82,21.82s9.79,21.82,21.82,21.82h34.48c12.03,0,21.82-9.79,21.82-21.82s-9.79-21.82-21.82-21.82h-34.48Z"/>
        </g>
        <g>
          <ellipse class="cls-3" cx="969.2" cy="835.98" rx="207.89" ry="144.76" transform="translate(-22.38 1645.29) rotate(-80)"/>
          <path class="cls-2" d="M960.22,1048.47c-9.04,0-18.38-.85-28.03-2.55-50.22-8.86-84.93-36.64-103.15-82.57-15.7-39.57-18.33-92.62-7.6-153.42,10.72-60.8,31.34-109.76,59.62-141.57,32.83-36.93,74.95-51.17,125.17-42.31,50.22,8.86,84.93,36.64,103.15,82.57,15.7,39.57,18.33,92.62,7.6,153.43-10.72,60.8-31.34,109.76-59.62,141.57-26.53,29.84-59.11,44.86-97.14,44.86Zm18.24-414.36c-35.07,0-65.08,13.82-89.49,41.28-26.98,30.35-46.73,77.51-57.11,136.38-10.38,58.87-7.95,109.94,7.02,147.68,16.78,42.29,48.79,67.87,95.15,76.05,46.36,8.17,85.19-4.92,115.42-38.92,26.98-30.35,46.73-77.5,57.11-136.38,10.38-58.87,7.95-109.94-7.02-147.68-16.78-42.29-48.79-67.87-95.14-76.05-8.92-1.57-17.57-2.36-25.93-2.36Z"/>
        </g>
      </g>
      <g>
        <path class="cls-3" d="M965.73,621.33c-2.59-3.1-5.22-6.14-7.92-9.1-10.91-11.99-23.04-21.77-36-29.56-44.59-26.8-98.88-29.88-146.29-17.63-27.34,7.07-53.63,11.41-85.75,11.41-32.11,0-58.41-4.34-85.75-11.41-36.78-9.51-77.69-9.78-115,3.08-24.77,8.54-47.95,22.86-67.29,44.11-2.69,2.96-5.33,5.99-7.92,9.1-8.61,10.35-16.63,21.48-23.97,33.25-31.91,51.17-51.13,114.3-51.88,176.35-.12,10.2,.36,20.41,1.55,30.53,1.01,8.64,2.71,17.12,5.13,25.28,4.53,15.26,11.79,29.85,22.17,41.99,24.44,28.58,58.12,28.39,91.55,19.09,27.27-7.59,54.38-21.24,76.17-30.28,71.13-29.51,115.24-32.52,155.23-32.52,39.99,0,84.1,3.01,155.23,32.52,32.02,13.29,75.53,36.53,114.17,35.85,19.88-.35,38.47-7.03,53.55-24.66,10.38-12.14,17.63-26.73,22.17-41.99,2.42-8.15,4.12-16.63,5.13-25.28,1.18-10.11,1.67-20.33,1.55-30.53-.76-62.05-19.97-125.18-51.88-176.35-7.34-11.77-15.35-22.91-23.96-33.25Z"/>
        <path class="cls-1" d="M422.06,958.65c-24.57,0-44.13-8.79-59.26-26.48-10.34-12.09-18.15-26.87-23.22-43.92-2.46-8.29-4.25-17.09-5.31-26.17-1.18-10.06-1.71-20.56-1.58-31.21,.76-62.23,19.47-125.83,52.68-179.09,7.49-12.01,15.7-23.4,24.39-33.84,2.63-3.15,5.34-6.27,8.07-9.27,19.01-20.89,42.38-36.21,69.48-45.55,36.04-12.42,77.97-13.56,118.05-3.2,30.48,7.88,55.73,11.24,84.42,11.24s53.94-3.36,84.42-11.24c22.38-5.79,45.11-8.03,67.54-6.67,2.92,.18,5.14,2.69,4.96,5.6-.18,2.92-2.7,5.13-5.6,4.96-21.33-1.3-42.94,.84-64.25,6.35-31.4,8.12-57.44,11.58-87.07,11.58s-55.67-3.46-87.07-11.58c-38.09-9.84-77.85-8.79-111.95,2.96-25.4,8.75-47.3,23.11-65.1,42.67-2.62,2.88-5.24,5.89-7.76,8.92-8.38,10.07-16.3,21.06-23.54,32.67-32.2,51.64-50.35,113.3-51.08,173.62-.12,10.19,.38,20.23,1.51,29.85,.99,8.47,2.66,16.68,4.95,24.38,4.64,15.62,11.75,29.1,21.12,40.06,19.5,22.81,46.86,28.35,86.1,17.43,19.57-5.44,39.35-14.2,56.81-21.93,6.6-2.92,12.83-5.68,18.75-8.14,23.89-9.91,45.71-17.29,66.69-22.55,2.84-.71,5.71,1.01,6.42,3.85,.71,2.84-1.01,5.71-3.85,6.42-20.48,5.14-41.81,12.35-65.21,22.06-5.8,2.41-11.98,5.14-18.52,8.04-17.79,7.88-37.95,16.8-58.26,22.45-13.71,3.81-26.26,5.73-37.73,5.73Z"/>
        <g>
          <path class="cls-3" d="M643.65,887.31c16.64-1.9,31.65-2.3,46.13-2.3,39.99,0,84.1,3.01,155.23,32.52,32.02,13.29,75.53,36.53,114.17,35.85,19.88-.35,38.47-7.03,53.55-24.66,10.38-12.14,17.63-26.73,22.17-41.99,2.42-8.15,4.12-16.63,5.13-25.28,1.18-10.11,1.67-20.33,1.55-30.53-.76-62.05-19.97-125.18-51.88-176.35-7.34-11.77-15.35-22.91-23.96-33.25-2.59-3.1-5.22-6.14-7.92-9.1-10.91-11.99-23.04-21.77-36-29.56-12.3-7.39-25.33-12.98-38.75-16.93"/>
          <path class="cls-2" d="M957.55,958.7c-32.27,0-67.58-15.63-96.04-28.23-6.54-2.9-12.72-5.63-18.52-8.04-71.44-29.64-114.86-32.12-153.2-32.12-12.72,0-28.08,.27-45.53,2.26-2.9,.33-5.53-1.75-5.86-4.66-.33-2.91,1.75-5.53,4.66-5.86,17.97-2.05,33.71-2.33,46.73-2.33,39.41,0,84.02,2.54,157.26,32.93,5.92,2.46,12.15,5.22,18.75,8.14,27.55,12.2,61.73,27.33,91.76,27.33,.51,0,1.03,0,1.54-.01,20.57-.36,36.81-7.82,49.62-22.81,9.37-10.96,16.48-24.44,21.12-40.06,2.29-7.71,3.95-15.91,4.95-24.38,1.13-9.61,1.64-19.65,1.51-29.85-.74-60.32-18.88-121.98-51.08-173.62-7.24-11.61-15.16-22.6-23.54-32.66-2.52-3.03-5.13-6.03-7.76-8.92-10.21-11.22-21.92-20.84-34.81-28.59-11.55-6.94-24.17-12.46-37.52-16.39-2.8-.83-4.41-3.77-3.58-6.58,.83-2.8,3.77-4.41,6.58-3.58,14.21,4.19,27.66,10.07,39.98,17.47,13.77,8.27,26.28,18.55,37.19,30.53,2.73,3,5.45,6.12,8.07,9.27,8.69,10.44,16.9,21.82,24.39,33.84,33.21,53.26,51.92,116.86,52.68,179.09,.13,10.65-.4,21.15-1.58,31.21-1.06,9.07-2.85,17.88-5.31,26.17-5.07,17.05-12.88,31.83-23.22,43.92-14.69,17.18-34.03,26.11-57.48,26.52-.57,0-1.15,.01-1.72,.01Z"/>
        </g>
        <path class="cls-1" d="M626.03,833.88c-.88-.43-1.7-1.01-2.41-1.73-1.7-1.7-2.63-3.95-2.63-6.35v-9.49c0-2.4,.93-4.65,2.63-6.35,1.7-1.7,3.95-2.63,6.35-2.63h37.94c2.4,0,4.65,.93,6.35,2.63,1.7,1.7,2.63,3.95,2.63,6.35v9.49c0,2.4-.93,4.65-2.63,6.35-1.7,1.7-3.95,2.63-6.35,2.63h-37.94c-1.39,0-2.73-.31-3.94-.91Zm3.94-12.95h0Z"/>
        <path class="cls-2" d="M707.71,833.88c-.88-.43-1.7-1.01-2.41-1.73-1.7-1.7-2.63-3.95-2.63-6.35v-9.49c0-4.95,4.03-8.98,8.98-8.98h37.94c4.95,0,8.98,4.03,8.98,8.98v9.49c0,2.4-.93,4.65-2.63,6.35-1.7,1.7-3.96,2.63-6.36,2.63h-37.93c-1.39,0-2.73-.31-3.94-.9Zm41.88-12.95h0Z"/>
        <path class="cls-1" d="M511.71,785.82c-1.13,0-2.05-.92-2.05-2.05v-43.7h-43.7c-1.13,0-2.05-.92-2.05-2.06v-36.7c0-1.13,.92-2.05,2.05-2.05h43.7v-43.7c0-1.13,.92-2.05,2.05-2.05h36.7c1.13,0,2.05,.92,2.05,2.05v43.7h43.7c1.13,0,2.05,.92,2.05,2.05v36.7c0,1.13-.92,2.05-2.05,2.05h-43.7v43.7c0,1.13-.92,2.05-2.05,2.05h-36.7Z"/>
        <circle class="cls-2" cx="849.5" cy="661.53" r="20.41" transform="translate(-155.87 276.16) rotate(-16.94)"/>
        <circle class="cls-2" cx="849.5" cy="777.78" r="20.41" transform="translate(-301.16 828.49) rotate(-45)"/>
        <circle class="cls-2" cx="907.62" cy="719.66" r="20.41" transform="translate(-68.78 96.5) rotate(-5.86)"/>
        <circle class="cls-2" cx="791.37" cy="719.66" r="20.41" transform="translate(-268.14 572.67) rotate(-34.38)"/>
      </g>
      <g>
        <g>
          <g>
            <path class="cls-2" d="M855.16,236.16c-.3,0-.55-.25-.55-.55s.25-.55,.55-.55,.55,.25,.55,.55-.25,.55-.55,.55Z"/>
            <path class="cls-2" d="M862.74,215.89c-.61,0-1.1-.49-1.1-1.1s.49-1.1,1.1-1.1,1.1,.49,1.1,1.1-.49,1.1-1.1,1.1Z"/>
            <path class="cls-2" d="M870.31,195.63c-.91,0-1.65-.74-1.65-1.65s.74-1.65,1.65-1.65,1.65,.74,1.65,1.65-.74,1.65-1.65,1.65Z"/>
            <path class="cls-2" d="M877.89,175.36c-1.22,0-2.21-.99-2.21-2.21s.99-2.21,2.21-2.21,2.21,.99,2.21,2.21-.99,2.21-2.21,2.21Z"/>
            <path class="cls-2" d="M885.46,155.1c-1.52,0-2.76-1.23-2.76-2.76s1.23-2.76,2.76-2.76,2.76,1.23,2.76,2.76-1.23,2.76-2.76,2.76Z"/>
            <path class="cls-2" d="M893.03,134.83c-1.83,0-3.31-1.48-3.31-3.31s1.48-3.31,3.31-3.31,3.31,1.48,3.31,3.31-1.48,3.31-3.31,3.31Z"/>
            <path class="cls-2" d="M900.61,114.56c-2.13,0-3.86-1.73-3.86-3.86s1.73-3.86,3.86-3.86,3.86,1.73,3.86,3.86-1.73,3.86-3.86,3.86Z"/>
            <path class="cls-2" d="M908.18,94.3c-2.44,0-4.41-1.97-4.41-4.41s1.98-4.41,4.41-4.41,4.41,1.98,4.41,4.41-1.98,4.41-4.41,4.41Z"/>
            <circle class="cls-2" cx="915.76" cy="69.07" r="4.96"/>
            <path class="cls-2" d="M923.33,53.77c-3.05,0-5.51-2.47-5.51-5.51s2.47-5.51,5.51-5.51,5.51,2.47,5.51,5.51-2.47,5.51-5.51,5.51Z"/>
            <path class="cls-2" d="M930.9,33.5c-3.35,0-6.07-2.72-6.07-6.07s2.72-6.07,6.07-6.07,6.07,2.72,6.07,6.07-2.72,6.07-6.07,6.07Z"/>
            <path class="cls-2" d="M938.48,13.23c-3.65,0-6.62-2.96-6.62-6.62s2.96-6.62,6.62-6.62,6.62,2.96,6.62,6.62-2.96,6.62-6.62,6.62Z"/>
          </g>
          <g>
            <path class="cls-1" d="M770.5,202.44c-.61,0-1.1-.49-1.1-1.1s.49-1.1,1.1-1.1,1.1,.49,1.1,1.1-.49,1.1-1.1,1.1Z"/>
            <path class="cls-1" d="M773.76,182.9c-1.22,0-2.21-.99-2.21-2.21s.99-2.21,2.21-2.21,2.21,.99,2.21,2.21-.99,2.21-2.21,2.21Z"/>
            <path class="cls-1" d="M777.02,163.36c-1.83,0-3.31-1.48-3.31-3.31s1.48-3.31,3.31-3.31,3.31,1.48,3.31,3.31-1.48,3.31-3.31,3.31Z"/>
            <path class="cls-1" d="M780.28,143.81c-2.44,0-4.41-1.98-4.41-4.41s1.98-4.41,4.41-4.41,4.41,1.98,4.41,4.41-1.98,4.41-4.41,4.41Z"/>
            <path class="cls-1" d="M783.54,124.27c-3.05,0-5.51-2.47-5.51-5.51s2.47-5.51,5.51-5.51,5.51,2.47,5.51,5.51-2.47,5.51-5.51,5.51Z"/>
            <path class="cls-1" d="M786.8,104.73c-3.65,0-6.62-2.96-6.62-6.62s2.96-6.62,6.62-6.62,6.62,2.96,6.62,6.62-2.96,6.62-6.62,6.62Z"/>
          </g>
          <g>
            <path class="cls-2" d="M307.97,533.45c-.91,0-1.65-.74-1.65-1.65s.74-1.65,1.65-1.65,1.65,.74,1.65,1.65-.74,1.65-1.65,1.65Z"/>
            <path class="cls-2" d="M285.85,527.05c-1.83,0-3.31-1.48-3.31-3.31s1.48-3.31,3.31-3.31,3.31,1.48,3.31,3.31-1.48,3.31-3.31,3.31Z"/>
            <circle class="cls-2" cx="263.73" cy="515.7" r="4.96"/>
            <circle class="cls-2" cx="241.61" cy="507.65" r="6.62"/>
          </g>
          <g>
            <path class="cls-1" d="M378.15,483.4c-.28,0-.51-.23-.51-.51s.23-.51,.51-.51,.51,.23,.51,.51-.23,.51-.51,.51Z"/>
            <path class="cls-1" d="M358.84,472.36c-.56,0-1.02-.46-1.02-1.02s.46-1.02,1.02-1.02,1.02,.46,1.02,1.02-.46,1.02-1.02,1.02Z"/>
            <path class="cls-1" d="M339.54,461.33c-.84,0-1.53-.68-1.53-1.53s.68-1.53,1.53-1.53,1.53,.68,1.53,1.53-.68,1.53-1.53,1.53Z"/>
            <path class="cls-1" d="M320.23,450.29c-1.12,0-2.04-.91-2.04-2.04s.91-2.04,2.04-2.04,2.04,.91,2.04,2.04-.91,2.04-2.04,2.04Z"/>
            <path class="cls-1" d="M300.93,439.26c-1.41,0-2.55-1.14-2.55-2.54s1.14-2.55,2.55-2.55,2.55,1.14,2.55,2.55-1.14,2.54-2.55,2.54Z"/>
            <path class="cls-1" d="M281.62,428.23c-1.69,0-3.05-1.37-3.05-3.05s1.37-3.05,3.05-3.05,3.05,1.37,3.05,3.05-1.37,3.05-3.05,3.05Z"/>
            <path class="cls-1" d="M262.32,417.19c-1.97,0-3.56-1.6-3.56-3.56s1.6-3.56,3.56-3.56,3.56,1.6,3.56,3.56-1.6,3.56-3.56,3.56Z"/>
            <path class="cls-1" d="M243.02,406.16c-2.25,0-4.07-1.82-4.07-4.07s1.82-4.07,4.07-4.07,4.07,1.82,4.07,4.07-1.82,4.07-4.07,4.07Z"/>
            <path class="cls-1" d="M223.71,395.12c-2.53,0-4.58-2.05-4.58-4.58s2.05-4.58,4.58-4.58,4.58,2.05,4.58,4.58-2.05,4.58-4.58,4.58Z"/>
            <path class="cls-1" d="M204.41,384.09c-2.81,0-5.09-2.28-5.09-5.09s2.28-5.09,5.09-5.09,5.09,2.28,5.09,5.09-2.28,5.09-5.09,5.09Z"/>
            <path class="cls-1" d="M185.1,373.05c-3.09,0-5.6-2.51-5.6-5.6s2.51-5.6,5.6-5.6,5.6,2.51,5.6,5.6-2.51,5.6-5.6,5.6Z"/>
            <path class="cls-1" d="M165.8,362.02c-3.37,0-6.11-2.73-6.11-6.11s2.73-6.11,6.11-6.11,6.11,2.73,6.11,6.11-2.73,6.11-6.11,6.11Z"/>
            <path class="cls-1" d="M146.49,350.98c-3.65,0-6.62-2.96-6.62-6.62s2.96-6.62,6.62-6.62,6.62,2.96,6.62,6.62-2.96,6.62-6.62,6.62Z"/>
          </g>
          <g>
            <path class="cls-2" d="M422.64,293.59c-.3,0-.55-.25-.55-.55s.25-.55,.55-.55,.55,.25,.55,.55-.25,.55-.55,.55Z"/>
            <path class="cls-2" d="M409.44,275.8c-.61,0-1.1-.49-1.1-1.1s.49-1.1,1.1-1.1,1.1,.49,1.1,1.1-.49,1.1-1.1,1.1Z"/>
            <path class="cls-2" d="M396.24,258c-.91,0-1.65-.74-1.65-1.65s.74-1.65,1.65-1.65,1.65,.74,1.65,1.65-.74,1.65-1.65,1.65Z"/>
            <path class="cls-2" d="M383.03,240.21c-1.22,0-2.21-.99-2.21-2.21s.99-2.21,2.21-2.21,2.21,.99,2.21,2.21-.99,2.21-2.21,2.21Z"/>
            <path class="cls-2" d="M369.83,222.41c-1.52,0-2.76-1.23-2.76-2.76s1.23-2.76,2.76-2.76,2.76,1.23,2.76,2.76-1.23,2.76-2.76,2.76Z"/>
            <path class="cls-2" d="M356.63,204.62c-1.83,0-3.31-1.48-3.31-3.31s1.48-3.31,3.31-3.31,3.31,1.48,3.31,3.31-1.48,3.31-3.31,3.31Z"/>
            <path class="cls-2" d="M343.43,186.82c-2.13,0-3.86-1.73-3.86-3.86s1.73-3.86,3.86-3.86,3.86,1.73,3.86,3.86-1.73,3.86-3.86,3.86Z"/>
            <path class="cls-2" d="M330.23,169.03c-2.44,0-4.41-1.98-4.41-4.41s1.98-4.41,4.41-4.41,4.41,1.98,4.41,4.41-1.98,4.41-4.41,4.41Z"/>
            <path class="cls-2" d="M317.03,151.23c-2.74,0-4.96-2.22-4.96-4.96s2.22-4.96,4.96-4.96,4.96,2.22,4.96,4.96-2.22,4.96-4.96,4.96Z"/>
            <path class="cls-2" d="M303.83,133.44c-3.05,0-5.51-2.47-5.51-5.51s2.47-5.51,5.51-5.51,5.51,2.47,5.51,5.51-2.47,5.51-5.51,5.51Z"/>
            <path class="cls-2" d="M290.63,115.64c-3.35,0-6.07-2.72-6.07-6.07s2.72-6.07,6.07-6.07,6.07,2.72,6.07,6.07-2.72,6.07-6.07,6.07Z"/>
            <path class="cls-2" d="M277.43,97.85c-3.65,0-6.62-2.96-6.62-6.62s2.96-6.62,6.62-6.62,6.62,2.96,6.62,6.62-2.96,6.62-6.62,6.62Z"/>
          </g>
          <g>
            <path class="cls-1" d="M483.15,218.79c-1.22,0-2.21-.99-2.21-2.21s.99-2.21,2.21-2.21,2.21,.99,2.21,2.21-.99,2.21-2.21,2.21Z"/>
            <path class="cls-1" d="M472.6,198.39c-2.44,0-4.41-1.98-4.41-4.41s1.98-4.41,4.41-4.41,4.41,1.98,4.41,4.41-1.97,4.41-4.41,4.41Z"/>
            <circle class="cls-1" cx="462.05" cy="171.37" r="6.62"/>
          </g>
          <g>
            <path class="cls-2" d="M584.71,205.93c-.61,0-1.1-.49-1.1-1.1s.49-1.1,1.1-1.1,1.1,.49,1.1,1.1-.49,1.1-1.1,1.1Z"/>
            <path class="cls-2" d="M579.91,186.83c-1.22,0-2.21-.99-2.21-2.21s.99-2.21,2.21-2.21,2.21,.99,2.21,2.21-.99,2.21-2.21,2.21Z"/>
            <path class="cls-2" d="M575.1,167.73c-1.83,0-3.31-1.48-3.31-3.31s1.48-3.31,3.31-3.31,3.31,1.48,3.31,3.31-1.48,3.31-3.31,3.31Z"/>
            <path class="cls-2" d="M570.3,148.63c-2.44,0-4.41-1.98-4.41-4.41s1.97-4.41,4.41-4.41,4.41,1.98,4.41,4.41-1.97,4.41-4.41,4.41Z"/>
            <path class="cls-2" d="M565.49,129.52c-3.05,0-5.51-2.47-5.51-5.51s2.47-5.51,5.51-5.51,5.51,2.47,5.51,5.51-2.47,5.51-5.51,5.51Z"/>
            <circle class="cls-2" cx="560.69" cy="103.81" r="6.62" transform="translate(-6.83 48.44) rotate(-4.92)"/>
          </g>
          <g>
            <path class="cls-1" d="M357.53,369.1c-.91,0-1.65-.74-1.65-1.65s.74-1.65,1.65-1.65,1.65,.74,1.65,1.65-.74,1.65-1.65,1.65Z"/>
            <path class="cls-1" d="M339.3,354.26c-1.83,0-3.31-1.48-3.31-3.31s1.48-3.31,3.31-3.31,3.31,1.48,3.31,3.31-1.48,3.31-3.31,3.31Z"/>
            <path class="cls-1" d="M321.06,339.44c-2.74,0-4.96-2.22-4.96-4.96s2.22-4.96,4.96-4.96,4.96,2.22,4.96,4.96-2.22,4.96-4.96,4.96Z"/>
            <path class="cls-1" d="M302.85,324.66c-3.65,0-6.62-2.96-6.62-6.62s2.96-6.62,6.62-6.62,6.62,2.96,6.62,6.62-2.96,6.62-6.62,6.62Z"/>
          </g>
          <g>
            <path class="cls-1" d="M1063.73,731.64c-.33,0-.6-.27-.6-.6s.27-.6,.6-.6,.6,.27,.6,.6-.27,.6-.6,.6Z"/>
            <path class="cls-1" d="M1086.27,735.8c-.66,0-1.2-.54-1.2-1.2s.54-1.2,1.2-1.2,1.2,.54,1.2,1.2-.54,1.2-1.2,1.2Z"/>
            <path class="cls-1" d="M1108.81,739.96c-1,0-1.8-.81-1.8-1.8s.81-1.8,1.8-1.8,1.8,.81,1.8,1.8-.81,1.8-1.8,1.8Z"/>
            <path class="cls-1" d="M1131.34,744.12c-1.33,0-2.41-1.08-2.41-2.41s1.08-2.41,2.41-2.41,2.41,1.08,2.41,2.41-1.08,2.41-2.41,2.41Z"/>
            <path class="cls-1" d="M1153.88,748.28c-1.66,0-3.01-1.35-3.01-3.01s1.35-3.01,3.01-3.01,3.01,1.35,3.01,3.01-1.35,3.01-3.01,3.01Z"/>
            <path class="cls-1" d="M1176.42,752.44c-1.99,0-3.61-1.62-3.61-3.61s1.62-3.61,3.61-3.61,3.61,1.62,3.61,3.61-1.62,3.61-3.61,3.61Z"/>
            <path class="cls-1" d="M1198.96,756.6c-2.33,0-4.21-1.89-4.21-4.21s1.89-4.21,4.21-4.21,4.21,1.89,4.21,4.21-1.89,4.21-4.21,4.21Z"/>
            <circle class="cls-1" cx="1221.5" cy="755.94" r="4.81"/>
            <path class="cls-1" d="M1244.04,764.92c-2.99,0-5.41-2.42-5.41-5.41s2.42-5.41,5.41-5.41,5.41,2.42,5.41,5.41-2.42,5.41-5.41,5.41Z"/>
            <path class="cls-1" d="M1266.57,769.08c-3.32,0-6.02-2.69-6.02-6.02s2.69-6.02,6.02-6.02,6.02,2.69,6.02,6.02-2.69,6.02-6.02,6.02Z"/>
            <path class="cls-1" d="M1289.11,773.24c-3.65,0-6.62-2.96-6.62-6.62s2.96-6.62,6.62-6.62,6.62,2.96,6.62,6.62-2.96,6.62-6.62,6.62Z"/>
          </g>
          <g>
            <path class="cls-1" d="M928.45,285.97c-.91,0-1.65-.74-1.65-1.65s.74-1.65,1.65-1.65,1.65,.74,1.65,1.65-.74,1.65-1.65,1.65Z"/>
            <path class="cls-1" d="M938.48,270.85c-1.83,0-3.31-1.48-3.31-3.31s1.48-3.31,3.31-3.31,3.31,1.48,3.31,3.31-1.48,3.31-3.31,3.31Z"/>
            <path class="cls-1" d="M948.5,255.74c-2.74,0-4.96-2.22-4.96-4.96s2.22-4.96,4.96-4.96,4.96,2.22,4.96,4.96-2.22,4.96-4.96,4.96Z"/>
            <path class="cls-1" d="M958.53,240.63c-3.65,0-6.62-2.96-6.62-6.62s2.96-6.62,6.62-6.62,6.62,2.96,6.62,6.62-2.96,6.62-6.62,6.62Z"/>
          </g>
          <g>
            <path class="cls-2" d="M1093.6,488.04c-.28,0-.51-.23-.51-.51s.23-.51,.51-.51,.51,.23,.51,.51-.23,.51-.51,.51Z"/>
            <path class="cls-2" d="M1112.86,479.57c-.56,0-1.02-.46-1.02-1.02s.46-1.02,1.02-1.02,1.02,.46,1.02,1.02-.46,1.02-1.02,1.02Z"/>
            <path class="cls-2" d="M1132.11,471.1c-.84,0-1.53-.68-1.53-1.53s.68-1.53,1.53-1.53,1.53,.68,1.53,1.53-.68,1.53-1.53,1.53Z"/>
            <path class="cls-2" d="M1151.37,462.62c-1.12,0-2.04-.91-2.04-2.04s.91-2.04,2.04-2.04,2.04,.91,2.04,2.04-.91,2.04-2.04,2.04Z"/>
            <path class="cls-2" d="M1170.63,454.15c-1.41,0-2.54-1.14-2.54-2.55s1.14-2.54,2.54-2.54,2.55,1.14,2.55,2.54-1.14,2.55-2.55,2.55Z"/>
            <path class="cls-2" d="M1189.89,445.67c-1.69,0-3.05-1.37-3.05-3.05s1.37-3.05,3.05-3.05,3.05,1.37,3.05,3.05-1.37,3.05-3.05,3.05Z"/>
            <circle class="cls-2" cx="1209.15" cy="433.64" r="3.56" transform="translate(-73.67 500.32) rotate(-22.71)"/>
            <path class="cls-2" d="M1228.4,428.73c-2.25,0-4.07-1.82-4.07-4.07s1.82-4.07,4.07-4.07,4.07,1.82,4.07,4.07-1.82,4.07-4.07,4.07Z"/>
            <path class="cls-2" d="M1247.66,420.25c-2.53,0-4.58-2.05-4.58-4.58s2.05-4.58,4.58-4.58,4.58,2.05,4.58,4.58-2.05,4.58-4.58,4.58Z"/>
            <path class="cls-2" d="M1266.92,411.78c-2.81,0-5.09-2.28-5.09-5.09s2.28-5.09,5.09-5.09,5.09,2.28,5.09,5.09-2.28,5.09-5.09,5.09Z"/>
            <path class="cls-2" d="M1286.18,403.3c-3.09,0-5.6-2.51-5.6-5.6s2.51-5.6,5.6-5.6,5.6,2.51,5.6,5.6-2.51,5.6-5.6,5.6Z"/>
            <path class="cls-2" d="M1305.44,394.83c-3.37,0-6.11-2.73-6.11-6.11s2.73-6.11,6.11-6.11,6.11,2.73,6.11,6.11-2.73,6.11-6.11,6.11Z"/>
            <path class="cls-2" d="M1324.69,386.36c-3.65,0-6.62-2.96-6.62-6.62s2.96-6.62,6.62-6.62,6.62,2.96,6.62,6.62-2.96,6.62-6.62,6.62Z"/>
          </g>
          <g>
            <path class="cls-1" d="M1001.01,601.06c-.33,0-.6-.27-.6-.6s.27-.6,.6-.6,.6,.27,.6,.6-.27,.6-.6,.6Z"/>
            <path class="cls-1" d="M1022.64,596.52c-.66,0-1.2-.54-1.2-1.2s.54-1.2,1.2-1.2,1.2,.54,1.2,1.2-.54,1.2-1.2,1.2Z"/>
            <path class="cls-1" d="M1044.27,591.98c-1,0-1.8-.81-1.8-1.8s.81-1.8,1.8-1.8,1.8,.81,1.8,1.8-.81,1.8-1.8,1.8Z"/>
            <path class="cls-1" d="M1065.9,587.44c-1.33,0-2.41-1.08-2.41-2.41s1.08-2.41,2.41-2.41,2.41,1.08,2.41,2.41-1.08,2.41-2.41,2.41Z"/>
            <path class="cls-1" d="M1087.53,582.9c-1.66,0-3.01-1.35-3.01-3.01s1.35-3.01,3.01-3.01,3.01,1.35,3.01,3.01-1.35,3.01-3.01,3.01Z"/>
            <circle class="cls-1" cx="1109.16" cy="574.75" r="3.61"/>
            <path class="cls-1" d="M1130.79,573.81c-2.33,0-4.21-1.89-4.21-4.21s1.89-4.21,4.21-4.21,4.21,1.89,4.21,4.21-1.89,4.21-4.21,4.21Z"/>
            <circle class="cls-1" cx="1152.42" cy="564.46" r="4.81"/>
            <path class="cls-1" d="M1174.04,564.73c-2.99,0-5.41-2.42-5.41-5.41s2.42-5.41,5.41-5.41,5.41,2.42,5.41,5.41-2.42,5.41-5.41,5.41Z"/>
            <path class="cls-1" d="M1195.67,560.19c-3.32,0-6.02-2.69-6.02-6.02s2.69-6.02,6.02-6.02,6.02,2.69,6.02,6.02-2.69,6.02-6.02,6.02Z"/>
            <path class="cls-1" d="M1217.3,555.65c-3.65,0-6.62-2.96-6.62-6.62s2.96-6.62,6.62-6.62,6.62,2.96,6.62,6.62-2.96,6.62-6.62,6.62Z"/>
          </g>
          <g>
            <circle class="cls-1" cx="961.49" cy="385.22" r=".66"/>
            <path class="cls-1" d="M976.35,370.37c-.73,0-1.32-.59-1.32-1.32s.59-1.32,1.32-1.32,1.32,.59,1.32,1.32-.59,1.32-1.32,1.32Z"/>
            <path class="cls-1" d="M991.22,354.86c-1.1,0-1.99-.89-1.99-1.99s.89-1.98,1.99-1.98,1.99,.89,1.99,1.98-.89,1.99-1.99,1.99Z"/>
            <path class="cls-1" d="M1006.09,339.35c-1.46,0-2.65-1.19-2.65-2.65s1.18-2.65,2.65-2.65,2.65,1.19,2.65,2.65-1.18,2.65-2.65,2.65Z"/>
            <circle class="cls-1" cx="1020.95" cy="320.53" r="3.31"/>
            <path class="cls-1" d="M1035.82,308.33c-2.19,0-3.97-1.78-3.97-3.97s1.78-3.97,3.97-3.97,3.97,1.78,3.97,3.97-1.78,3.97-3.97,3.97Z"/>
            <path class="cls-1" d="M1050.69,292.82c-2.56,0-4.63-2.07-4.63-4.63s2.07-4.63,4.63-4.63,4.63,2.07,4.63,4.63-2.07,4.63-4.63,4.63Z"/>
            <path class="cls-1" d="M1065.55,277.31c-2.92,0-5.29-2.37-5.29-5.29s2.37-5.29,5.29-5.29,5.29,2.37,5.29,5.29-2.37,5.29-5.29,5.29Z"/>
            <path class="cls-1" d="M1080.42,261.8c-3.29,0-5.96-2.67-5.96-5.96s2.67-5.95,5.96-5.95,5.96,2.67,5.96,5.95-2.67,5.96-5.96,5.96Z"/>
            <circle class="cls-1" cx="1095.29" cy="239.68" r="6.62" transform="translate(783.93 1316.78) rotate(-86.22)"/>
          </g>
          <g>
            <path class="cls-2" d="M1129.1,657.86c-.28,0-.51-.23-.51-.51s.23-.51,.51-.51,.51,.23,.51,.51-.23,.51-.51,.51Z"/>
            <path class="cls-2" d="M1151.56,657.48c-.56,0-1.02-.46-1.02-1.02s.46-1.02,1.02-1.02,1.02,.46,1.02,1.02-.46,1.02-1.02,1.02Z"/>
            <path class="cls-2" d="M1173.96,657.11c-.84,0-1.53-.68-1.53-1.53s.68-1.53,1.53-1.53,1.53,.68,1.53,1.53-.68,1.53-1.53,1.53Z"/>
            <circle class="cls-2" cx="1196.35" cy="654.71" r="2.04"/>
            <path class="cls-2" d="M1218.77,656.38c-1.41,0-2.55-1.14-2.55-2.54s1.14-2.55,2.55-2.55,2.55,1.14,2.55,2.55-1.14,2.54-2.55,2.54Z"/>
            <path class="cls-2" d="M1241.22,656.01c-1.69,0-3.05-1.37-3.05-3.05s1.37-3.05,3.05-3.05,3.05,1.37,3.05,3.05-1.37,3.05-3.05,3.05Z"/>
            <path class="cls-2" d="M1263.67,655.65c-1.97,0-3.56-1.6-3.56-3.56s1.6-3.56,3.56-3.56,3.56,1.6,3.56,3.56-1.6,3.56-3.56,3.56Z"/>
            <path class="cls-2" d="M1286.13,655.28c-2.25,0-4.07-1.82-4.07-4.07s1.82-4.07,4.07-4.07,4.07,1.82,4.07,4.07-1.82,4.07-4.07,4.07Z"/>
            <path class="cls-2" d="M1308.59,654.92c-2.53,0-4.58-2.05-4.58-4.58s2.05-4.58,4.58-4.58,4.58,2.05,4.58,4.58-2.05,4.58-4.58,4.58Z"/>
            <path class="cls-2" d="M1331.05,654.56c-2.81,0-5.09-2.28-5.09-5.09s2.28-5.09,5.09-5.09,5.09,2.28,5.09,5.09-2.28,5.09-5.09,5.09Z"/>
            <path class="cls-2" d="M1353.51,654.2c-3.09,0-5.6-2.51-5.6-5.6s2.51-5.6,5.6-5.6,5.6,2.51,5.6,5.6-2.51,5.6-5.6,5.6Z"/>
            <path class="cls-2" d="M1375.97,653.84c-3.37,0-6.11-2.73-6.11-6.11s2.73-6.11,6.11-6.11,6.11,2.73,6.11,6.11-2.73,6.11-6.11,6.11Z"/>
            <circle class="cls-2" cx="1398.6" cy="646.85" r="6.62"/>
          </g>
          <g>
            <path class="cls-2" d="M1096.14,819.11c-.3,0-.55-.25-.55-.55s.25-.55,.55-.55,.55,.25,.55,.55-.25,.55-.55,.55Z"/>
            <path class="cls-2" d="M1116.31,827c-.61,0-1.1-.49-1.1-1.1s.49-1.1,1.1-1.1,1.1,.49,1.1,1.1-.49,1.1-1.1,1.1Z"/>
            <circle class="cls-2" cx="1136.48" cy="833.23" r="1.65"/>
            <path class="cls-2" d="M1156.66,842.78c-1.22,0-2.21-.99-2.21-2.21s.99-2.21,2.21-2.21,2.21,.99,2.21,2.21-.99,2.21-2.21,2.21Z"/>
            <path class="cls-2" d="M1176.83,850.67c-1.52,0-2.76-1.23-2.76-2.76s1.23-2.76,2.76-2.76,2.76,1.23,2.76,2.76-1.23,2.76-2.76,2.76Z"/>
            <path class="cls-2" d="M1197,858.56c-1.83,0-3.31-1.48-3.31-3.31s1.48-3.31,3.31-3.31,3.31,1.48,3.31,3.31-1.48,3.31-3.31,3.31Z"/>
            <path class="cls-2" d="M1217.17,866.45c-2.13,0-3.86-1.73-3.86-3.86s1.73-3.86,3.86-3.86,3.86,1.73,3.86,3.86-1.73,3.86-3.86,3.86Z"/>
            <path class="cls-2" d="M1237.34,874.34c-2.44,0-4.41-1.98-4.41-4.41s1.97-4.41,4.41-4.41,4.41,1.98,4.41,4.41-1.98,4.41-4.41,4.41Z"/>
            <path class="cls-2" d="M1257.51,882.23c-2.74,0-4.96-2.22-4.96-4.96s2.22-4.96,4.96-4.96,4.96,2.22,4.96,4.96-2.22,4.96-4.96,4.96Z"/>
            <path class="cls-2" d="M1277.68,890.12c-3.05,0-5.51-2.47-5.51-5.51s2.47-5.51,5.51-5.51,5.51,2.47,5.51,5.51-2.47,5.51-5.51,5.51Z"/>
            <path class="cls-2" d="M1297.86,898.01c-3.35,0-6.07-2.72-6.07-6.07s2.72-6.07,6.07-6.07,6.07,2.72,6.07,6.07-2.72,6.07-6.07,6.07Z"/>
            <path class="cls-2" d="M1318.03,905.9c-3.65,0-6.62-2.96-6.62-6.62s2.96-6.62,6.62-6.62,6.62,2.96,6.62,6.62-2.96,6.62-6.62,6.62Z"/>
          </g>
          <g>
            <path class="cls-2" d="M575.98,1042.73c-.37,0-.66-.3-.66-.66s.3-.66,.66-.66,.66,.3,.66,.66-.3,.66-.66,.66Z"/>
            <path class="cls-2" d="M568.68,1064.55c-.73,0-1.32-.59-1.32-1.32s.59-1.32,1.32-1.32,1.32,.59,1.32,1.32-.59,1.32-1.32,1.32Z"/>
            <path class="cls-2" d="M561.38,1086.36c-1.1,0-1.99-.89-1.99-1.99s.89-1.98,1.99-1.98,1.99,.89,1.99,1.98-.89,1.99-1.99,1.99Z"/>
            <path class="cls-2" d="M554.08,1108.18c-1.46,0-2.65-1.18-2.65-2.65s1.19-2.65,2.65-2.65,2.65,1.18,2.65,2.65-1.18,2.65-2.65,2.65Z"/>
            <circle class="cls-2" cx="546.79" cy="1126.69" r="3.31"/>
            <path class="cls-2" d="M539.49,1151.82c-2.19,0-3.97-1.78-3.97-3.97s1.78-3.97,3.97-3.97,3.97,1.78,3.97,3.97-1.78,3.97-3.97,3.97Z"/>
            <path class="cls-2" d="M532.19,1173.64c-2.56,0-4.63-2.07-4.63-4.63s2.07-4.63,4.63-4.63,4.63,2.07,4.63,4.63-2.07,4.63-4.63,4.63Z"/>
            <path class="cls-2" d="M524.89,1195.45c-2.92,0-5.29-2.37-5.29-5.29s2.37-5.29,5.29-5.29,5.29,2.37,5.29,5.29-2.37,5.29-5.29,5.29Z"/>
            <path class="cls-2" d="M517.59,1217.27c-3.29,0-5.96-2.67-5.96-5.96s2.67-5.96,5.96-5.96,5.96,2.67,5.96,5.96-2.67,5.96-5.96,5.96Z"/>
            <path class="cls-2" d="M510.29,1239.09c-3.65,0-6.62-2.96-6.62-6.62s2.96-6.62,6.62-6.62,6.62,2.96,6.62,6.62-2.96,6.62-6.62,6.62Z"/>
          </g>
          <g>
            <path class="cls-1" d="M626.4,1221.53c-1.22,0-2.21-.99-2.21-2.21s.99-2.21,2.21-2.21,2.21,.99,2.21,2.21-.99,2.21-2.21,2.21Z"/>
            <path class="cls-1" d="M623.59,1243.46c-2.44,0-4.41-1.98-4.41-4.41s1.98-4.41,4.41-4.41,4.41,1.98,4.41,4.41-1.98,4.41-4.41,4.41Z"/>
            <circle class="cls-1" cx="620.77" cy="1258.77" r="6.62" transform="translate(-647.41 1860.08) rotate(-89.12)"/>
          </g>
          <g>
            <path class="cls-1" d="M1004.74,855.51c-.46,0-.83-.37-.83-.83s.37-.83,.83-.83,.83,.37,.83,.83-.37,.83-.83,.83Z"/>
            <path class="cls-1" d="M1024.49,868.05c-.91,0-1.65-.74-1.65-1.65s.74-1.65,1.65-1.65,1.65,.74,1.65,1.65-.74,1.65-1.65,1.65Z"/>
            <path class="cls-1" d="M1044.24,880.58c-1.37,0-2.48-1.11-2.48-2.48s1.11-2.48,2.48-2.48,2.48,1.11,2.48,2.48-1.11,2.48-2.48,2.48Z"/>
            <path class="cls-1" d="M1063.99,893.12c-1.83,0-3.31-1.48-3.31-3.31s1.48-3.31,3.31-3.31,3.31,1.48,3.31,3.31-1.48,3.31-3.31,3.31Z"/>
            <path class="cls-1" d="M1083.74,905.65c-2.28,0-4.14-1.85-4.14-4.14s1.85-4.14,4.14-4.14,4.14,1.85,4.14,4.14-1.85,4.14-4.14,4.14Z"/>
            <path class="cls-1" d="M1103.49,918.19c-2.74,0-4.96-2.22-4.96-4.96s2.22-4.96,4.96-4.96,4.96,2.22,4.96,4.96-2.22,4.96-4.96,4.96Z"/>
            <path class="cls-1" d="M1123.23,930.72c-3.2,0-5.79-2.59-5.79-5.79s2.59-5.79,5.79-5.79,5.79,2.59,5.79,5.79-2.59,5.79-5.79,5.79Z"/>
            <path class="cls-1" d="M1142.98,943.26c-3.65,0-6.62-2.96-6.62-6.62s2.96-6.62,6.62-6.62,6.62,2.96,6.62,6.62-2.96,6.62-6.62,6.62Z"/>
          </g>
          <g>
            <path class="cls-2" d="M930.04,984.85c-.3,0-.55-.25-.55-.55s.25-.55,.55-.55,.55,.25,.55,.55-.25,.55-.55,.55Z"/>
            <path class="cls-2" d="M943.47,1003.8c-.61,0-1.1-.49-1.1-1.1s.49-1.1,1.1-1.1,1.1,.49,1.1,1.1-.49,1.1-1.1,1.1Z"/>
            <path class="cls-2" d="M956.9,1022.75c-.91,0-1.65-.74-1.65-1.65s.74-1.65,1.65-1.65,1.65,.74,1.65,1.65-.74,1.65-1.65,1.65Z"/>
            <path class="cls-2" d="M970.34,1041.71c-1.22,0-2.21-.99-2.21-2.21s.99-2.21,2.21-2.21,2.21,.99,2.21,2.21-.99,2.21-2.21,2.21Z"/>
            <path class="cls-2" d="M983.77,1060.66c-1.52,0-2.76-1.23-2.76-2.76s1.23-2.76,2.76-2.76,2.76,1.23,2.76,2.76-1.23,2.76-2.76,2.76Z"/>
            <path class="cls-2" d="M997.2,1079.61c-1.83,0-3.31-1.48-3.31-3.31s1.48-3.31,3.31-3.31,3.31,1.48,3.31,3.31-1.48,3.31-3.31,3.31Z"/>
            <path class="cls-2" d="M1010.63,1098.57c-2.13,0-3.86-1.73-3.86-3.86s1.73-3.86,3.86-3.86,3.86,1.73,3.86,3.86-1.73,3.86-3.86,3.86Z"/>
            <path class="cls-2" d="M1024.07,1117.52c-2.44,0-4.41-1.98-4.41-4.41s1.97-4.41,4.41-4.41,4.41,1.98,4.41,4.41-1.97,4.41-4.41,4.41Z"/>
            <path class="cls-2" d="M1037.5,1136.47c-2.74,0-4.96-2.22-4.96-4.96s2.22-4.96,4.96-4.96,4.96,2.22,4.96,4.96-2.22,4.96-4.96,4.96Z"/>
            <path class="cls-2" d="M1050.93,1155.42c-3.05,0-5.51-2.47-5.51-5.51s2.47-5.51,5.51-5.51,5.51,2.47,5.51,5.51-2.47,5.51-5.51,5.51Z"/>
            <path class="cls-2" d="M1064.36,1174.38c-3.35,0-6.07-2.72-6.07-6.07s2.72-6.07,6.07-6.07,6.07,2.72,6.07,6.07-2.72,6.07-6.07,6.07Z"/>
            <path class="cls-2" d="M1077.8,1193.33c-3.65,0-6.62-2.96-6.62-6.62s2.96-6.62,6.62-6.62,6.62,2.96,6.62,6.62-2.96,6.62-6.62,6.62Z"/>
          </g>
          <g>
            <path class="cls-1" d="M887.21,1060.19c-.46,0-.83-.37-.83-.83s.37-.83,.83-.83,.83,.37,.83,.83-.37,.83-.83,.83Z"/>
            <path class="cls-1" d="M897.01,1081.13c-.91,0-1.65-.74-1.65-1.65s.74-1.65,1.65-1.65,1.65,.74,1.65,1.65-.74,1.65-1.65,1.65Z"/>
            <path class="cls-1" d="M906.81,1102.08c-1.37,0-2.48-1.11-2.48-2.48s1.11-2.48,2.48-2.48,2.48,1.11,2.48,2.48-1.11,2.48-2.48,2.48Z"/>
            <path class="cls-1" d="M916.61,1123.02c-1.83,0-3.31-1.48-3.31-3.31s1.48-3.31,3.31-3.31,3.31,1.48,3.31,3.31-1.48,3.31-3.31,3.31Z"/>
            <path class="cls-1" d="M926.4,1143.96c-2.28,0-4.14-1.85-4.14-4.14s1.85-4.14,4.14-4.14,4.14,1.85,4.14,4.14-1.85,4.14-4.14,4.14Z"/>
            <path class="cls-1" d="M936.2,1164.9c-2.74,0-4.96-2.22-4.96-4.96s2.22-4.96,4.96-4.96,4.96,2.22,4.96,4.96-2.22,4.96-4.96,4.96Z"/>
            <circle class="cls-1" cx="946" cy="1180.05" r="5.79"/>
            <path class="cls-1" d="M955.8,1206.78c-3.65,0-6.62-2.96-6.62-6.62s2.96-6.62,6.62-6.62,6.62,2.96,6.62,6.62-2.96,6.62-6.62,6.62Z"/>
          </g>
          <g>
            <path class="cls-1" d="M830.54,1180.67c-.73,0-1.32-.59-1.32-1.32s.59-1.32,1.32-1.32,1.32,.59,1.32,1.32-.59,1.32-1.32,1.32Z"/>
            <path class="cls-1" d="M835.53,1201.74c-1.46,0-2.65-1.18-2.65-2.65s1.18-2.65,2.65-2.65,2.65,1.18,2.65,2.65-1.18,2.65-2.65,2.65Z"/>
            <path class="cls-1" d="M840.51,1222.82c-2.19,0-3.97-1.78-3.97-3.97s1.78-3.97,3.97-3.97,3.97,1.78,3.97,3.97-1.78,3.97-3.97,3.97Z"/>
            <path class="cls-1" d="M845.49,1243.89c-2.92,0-5.29-2.37-5.29-5.29s2.37-5.29,5.29-5.29,5.29,2.37,5.29,5.29-2.37,5.29-5.29,5.29Z"/>
            <path class="cls-1" d="M850.47,1264.96c-3.65,0-6.62-2.96-6.62-6.62s2.96-6.62,6.62-6.62,6.62,2.96,6.62,6.62-2.96,6.62-6.62,6.62Z"/>
          </g>
          <g>
            <path class="cls-1" d="M1022.66,961.41c-.41,0-.74-.33-.74-.74s.33-.73,.74-.73,.74,.33,.74,.73-.33,.74-.74,.74Z"/>
            <path class="cls-1" d="M1038.33,976.15c-.81,0-1.47-.66-1.47-1.47s.66-1.47,1.47-1.47,1.47,.66,1.47,1.47-.66,1.47-1.47,1.47Z"/>
            <path class="cls-1" d="M1054.06,990.9c-1.22,0-2.21-.99-2.21-2.21s.99-2.21,2.21-2.21,2.21,.99,2.21,2.21-.99,2.21-2.21,2.21Z"/>
            <circle class="cls-1" cx="1069.77" cy="1002.69" r="2.94" transform="translate(-304.05 490.42) rotate(-22.7)"/>
            <path class="cls-1" d="M1085.52,1020.37c-2.03,0-3.68-1.65-3.68-3.68s1.65-3.68,3.68-3.68,3.68,1.65,3.68,3.68-1.65,3.68-3.68,3.68Z"/>
            <path class="cls-1" d="M1101.26,1035.1c-2.44,0-4.41-1.98-4.41-4.41s1.98-4.41,4.41-4.41,4.41,1.97,4.41,4.41-1.98,4.41-4.41,4.41Z"/>
            <path class="cls-1" d="M1117.02,1049.83c-2.84,0-5.15-2.3-5.15-5.15s2.3-5.15,5.15-5.15,5.15,2.3,5.15,5.15-2.3,5.15-5.15,5.15Z"/>
            <path class="cls-1" d="M1132.77,1064.56c-3.25,0-5.88-2.63-5.88-5.88s2.63-5.88,5.88-5.88,5.88,2.63,5.88,5.88-2.63,5.88-5.88,5.88Z"/>
            <circle class="cls-1" cx="1148.59" cy="1072.71" r="6.62" transform="translate(47.55 2194.17) rotate(-88.57)"/>
          </g>
          <g>
            <path class="cls-1" d="M391.18,627.94c-.33,0-.6-.27-.6-.6s.27-.6,.6-.6,.6,.27,.6,.6-.27,.6-.6,.6Z"/>
            <path class="cls-1" d="M369.91,625.26c-.66,0-1.2-.54-1.2-1.2s.54-1.2,1.2-1.2,1.2,.54,1.2,1.2-.54,1.2-1.2,1.2Z"/>
            <path class="cls-1" d="M348.63,622.58c-1,0-1.8-.81-1.8-1.8s.81-1.8,1.8-1.8,1.8,.81,1.8,1.8-.81,1.8-1.8,1.8Z"/>
            <path class="cls-1" d="M327.36,619.89c-1.33,0-2.41-1.08-2.41-2.41s1.08-2.41,2.41-2.41,2.41,1.08,2.41,2.41-1.08,2.41-2.41,2.41Z"/>
            <path class="cls-1" d="M306.08,617.21c-1.66,0-3.01-1.35-3.01-3.01s1.35-3.01,3.01-3.01,3.01,1.35,3.01,3.01-1.35,3.01-3.01,3.01Z"/>
            <path class="cls-1" d="M284.81,614.53c-1.99,0-3.61-1.62-3.61-3.61s1.62-3.61,3.61-3.61,3.61,1.62,3.61,3.61-1.62,3.61-3.61,3.61Z"/>
            <path class="cls-1" d="M263.54,611.84c-2.33,0-4.21-1.89-4.21-4.21s1.89-4.21,4.21-4.21,4.21,1.89,4.21,4.21-1.89,4.21-4.21,4.21Z"/>
            <path class="cls-1" d="M242.26,609.16c-2.66,0-4.81-2.15-4.81-4.81s2.15-4.81,4.81-4.81,4.81,2.15,4.81,4.81-2.15,4.81-4.81,4.81Z"/>
            <path class="cls-1" d="M220.99,606.48c-2.99,0-5.41-2.42-5.41-5.41s2.42-5.41,5.41-5.41,5.41,2.42,5.41,5.41-2.42,5.41-5.41,5.41Z"/>
            <path class="cls-1" d="M199.71,603.79c-3.32,0-6.02-2.69-6.02-6.02s2.69-6.02,6.02-6.02,6.02,2.69,6.02,6.02-2.69,6.02-6.02,6.02Z"/>
            <path class="cls-1" d="M178.44,601.11c-3.65,0-6.62-2.96-6.62-6.62s2.96-6.62,6.62-6.62,6.62,2.96,6.62,6.62-2.96,6.62-6.62,6.62Z"/>
          </g>
          <g>
            <path class="cls-1" d="M488.75,1049.52c-.73,0-1.32-.59-1.32-1.32s.59-1.32,1.32-1.32,1.32,.59,1.32,1.32-.59,1.32-1.32,1.32Z"/>
            <path class="cls-1" d="M477.33,1070.85c-1.46,0-2.65-1.18-2.65-2.65s1.18-2.65,2.65-2.65,2.65,1.18,2.65,2.65-1.18,2.65-2.65,2.65Z"/>
            <path class="cls-1" d="M465.91,1092.18c-2.19,0-3.97-1.78-3.97-3.97s1.78-3.97,3.97-3.97,3.97,1.78,3.97,3.97-1.78,3.97-3.97,3.97Z"/>
            <path class="cls-1" d="M454.5,1113.51c-2.92,0-5.29-2.37-5.29-5.29s2.37-5.29,5.29-5.29,5.29,2.37,5.29,5.29-2.37,5.29-5.29,5.29Z"/>
            <path class="cls-1" d="M443.08,1134.84c-3.65,0-6.62-2.96-6.62-6.62s2.96-6.62,6.62-6.62,6.62,2.96,6.62,6.62-2.96,6.62-6.62,6.62Z"/>
          </g>
          <g>
            <path class="cls-1" d="M374.34,834.59c-.33,0-.6-.27-.6-.6s.27-.6,.6-.6,.6,.27,.6,.6-.27,.6-.6,.6Z"/>
            <circle class="cls-1" cx="354.64" cy="843.42" r="1.2"/>
            <path class="cls-1" d="M334.94,854.66c-1,0-1.8-.81-1.8-1.8s.81-1.8,1.8-1.8,1.8,.81,1.8,1.8-.81,1.8-1.8,1.8Z"/>
            <path class="cls-1" d="M315.24,864.7c-1.33,0-2.41-1.08-2.41-2.41s1.08-2.41,2.41-2.41,2.41,1.08,2.41,2.41-1.08,2.41-2.41,2.41Z"/>
            <path class="cls-1" d="M295.55,874.74c-1.66,0-3.01-1.35-3.01-3.01s1.35-3.01,3.01-3.01,3.01,1.35,3.01,3.01-1.35,3.01-3.01,3.01Z"/>
            <path class="cls-1" d="M275.85,884.77c-1.99,0-3.61-1.62-3.61-3.61s1.62-3.61,3.61-3.61,3.61,1.62,3.61,3.61-1.62,3.61-3.61,3.61Z"/>
            <path class="cls-1" d="M256.15,894.81c-2.33,0-4.21-1.89-4.21-4.21s1.89-4.21,4.21-4.21,4.21,1.89,4.21,4.21-1.89,4.21-4.21,4.21Z"/>
            <path class="cls-1" d="M236.45,904.85c-2.66,0-4.81-2.15-4.81-4.81s2.15-4.81,4.81-4.81,4.81,2.15,4.81,4.81-2.15,4.81-4.81,4.81Z"/>
            <path class="cls-1" d="M216.76,914.89c-2.99,0-5.41-2.42-5.41-5.41s2.42-5.41,5.41-5.41,5.41,2.42,5.41,5.41-2.42,5.41-5.41,5.41Z"/>
            <circle class="cls-1" cx="197.06" cy="918.91" r="6.02" transform="translate(-21.8 4.95) rotate(-1.36)"/>
            <circle class="cls-1" cx="177.36" cy="928.34" r="6.62"/>
          </g>
          <g>
            <path class="cls-2" d="M400.44,751.43c-.46,0-.83-.37-.83-.83s.37-.83,.83-.83,.83,.37,.83,.83-.37,.83-.83,.83Z"/>
            <path class="cls-2" d="M379.21,757.52c-.91,0-1.65-.74-1.65-1.65s.74-1.65,1.65-1.65,1.65,.74,1.65,1.65-.74,1.65-1.65,1.65Z"/>
            <path class="cls-2" d="M357.98,763.61c-1.37,0-2.48-1.11-2.48-2.48s1.11-2.48,2.48-2.48,2.48,1.11,2.48,2.48-1.11,2.48-2.48,2.48Z"/>
            <circle class="cls-2" cx="336.76" cy="766.39" r="3.31"/>
            <path class="cls-2" d="M315.53,775.79c-2.28,0-4.14-1.85-4.14-4.14s1.85-4.14,4.14-4.14,4.14,1.85,4.14,4.14-1.85,4.14-4.14,4.14Z"/>
            <circle class="cls-2" cx="294.3" cy="776.92" r="4.96"/>
            <path class="cls-2" d="M273.07,787.97c-3.2,0-5.79-2.59-5.79-5.79s2.59-5.79,5.79-5.79,5.79,2.59,5.79,5.79-2.59,5.79-5.79,5.79Z"/>
            <path class="cls-2" d="M251.84,794.06c-3.65,0-6.62-2.96-6.62-6.62s2.96-6.62,6.62-6.62,6.62,2.96,6.62,6.62-2.96,6.62-6.62,6.62Z"/>
          </g>
          <g>
            <path class="cls-2" d="M478.27,926.15c-.21,0-.39-.17-.39-.39s.17-.39,.39-.39,.39,.17,.39,.39-.17,.39-.39,.39Z"/>
            <circle class="cls-2" cx="463.61" cy="942.36" r=".78"/>
            <path class="cls-2" d="M448.96,960.12c-.64,0-1.17-.52-1.17-1.17s.52-1.17,1.17-1.17,1.17,.52,1.17,1.17-.52,1.17-1.17,1.17Z"/>
            <path class="cls-2" d="M434.3,977.1c-.86,0-1.56-.7-1.56-1.56s.7-1.56,1.56-1.56,1.56,.7,1.56,1.56-.7,1.56-1.56,1.56Z"/>
            <circle class="cls-2" cx="419.64" cy="992.14" r="1.95"/>
            <path class="cls-2" d="M404.99,1011.07c-1.29,0-2.34-1.05-2.34-2.34s1.05-2.34,2.34-2.34,2.34,1.05,2.34,2.34-1.05,2.34-2.34,2.34Z"/>
            <circle class="cls-2" cx="390.33" cy="1025.33" r="2.72" transform="translate(-5.95 2.28) rotate(-.33)"/>
            <path class="cls-2" d="M375.67,1045.04c-1.72,0-3.11-1.39-3.11-3.11s1.39-3.11,3.11-3.11,3.11,1.39,3.11,3.11-1.39,3.11-3.11,3.11Z"/>
            <path class="cls-2" d="M361.01,1062.03c-1.93,0-3.5-1.57-3.5-3.5s1.57-3.5,3.5-3.5,3.5,1.57,3.5,3.5-1.57,3.5-3.5,3.5Z"/>
            <path class="cls-2" d="M346.36,1079.01c-2.15,0-3.89-1.74-3.89-3.89s1.74-3.89,3.89-3.89,3.89,1.74,3.89,3.89-1.74,3.89-3.89,3.89Z"/>
            <path class="cls-2" d="M331.7,1096c-2.36,0-4.28-1.92-4.28-4.28s1.92-4.28,4.28-4.28,4.28,1.92,4.28,4.28-1.92,4.28-4.28,4.28Z"/>
            <circle class="cls-2" cx="317.04" cy="1108.31" r="4.67"/>
            <path class="cls-2" d="M302.39,1129.96c-2.79,0-5.06-2.27-5.06-5.06s2.27-5.06,5.06-5.06,5.06,2.27,5.06,5.06-2.27,5.06-5.06,5.06Z"/>
            <path class="cls-2" d="M287.73,1146.95c-3.01,0-5.45-2.44-5.45-5.45s2.44-5.45,5.45-5.45,5.45,2.44,5.45,5.45-2.44,5.45-5.45,5.45Z"/>
            <circle class="cls-2" cx="273.07" cy="1158.09" r="5.84"/>
            <path class="cls-2" d="M258.42,1180.92c-3.44,0-6.23-2.79-6.23-6.23s2.79-6.23,6.23-6.23,6.23,2.79,6.23,6.23-2.79,6.23-6.23,6.23Z"/>
            <circle class="cls-2" cx="243.76" cy="1191.28" r="6.62"/>
          </g>
          <g>
            <path class="cls-2" d="M339.5,691.03c-.23,0-.41-.19-.41-.41s.19-.41,.41-.41,.41,.19,.41,.41-.19,.41-.41,.41Z"/>
            <path class="cls-2" d="M317.3,692.43c-.46,0-.83-.37-.83-.83s.37-.83,.83-.83,.83,.37,.83,.83-.37,.83-.83,.83Z"/>
            <path class="cls-2" d="M295.11,693.84c-.69,0-1.24-.56-1.24-1.24s.56-1.24,1.24-1.24,1.24,.56,1.24,1.24-.56,1.24-1.24,1.24Z"/>
            <circle class="cls-2" cx="272.97" cy="693.6" r="1.65"/>
            <path class="cls-2" d="M250.83,696.66c-1.14,0-2.07-.93-2.07-2.07s.93-2.07,2.07-2.07,2.07,.93,2.07,2.07-.93,2.07-2.07,2.07Z"/>
            <path class="cls-2" d="M228.67,698.08c-1.37,0-2.48-1.11-2.48-2.48s1.11-2.48,2.48-2.48,2.48,1.11,2.48,2.48-1.11,2.48-2.48,2.48Z"/>
            <circle class="cls-2" cx="206.5" cy="696.61" r="2.89" transform="translate(-16.51 5.11) rotate(-1.36)"/>
            <circle class="cls-2" cx="184.3" cy="697.61" r="3.31"/>
            <circle class="cls-2" cx="162.11" cy="698.62" r="3.72"/>
            <path class="cls-2" d="M139.92,703.77c-2.28,0-4.14-1.85-4.14-4.14s1.85-4.14,4.14-4.14,4.14,1.85,4.14,4.14-1.85,4.14-4.14,4.14Z"/>
            <path class="cls-2" d="M117.73,705.19c-2.51,0-4.55-2.04-4.55-4.55s2.04-4.55,4.55-4.55,4.55,2.04,4.55,4.55-2.04,4.55-4.55,4.55Z"/>
            <circle class="cls-2" cx="95.54" cy="701.66" r="4.96"/>
            <path class="cls-2" d="M73.34,708.05c-2.97,0-5.38-2.41-5.38-5.38s2.41-5.38,5.38-5.38,5.38,2.41,5.38,5.38-2.41,5.38-5.38,5.38Z"/>
            <path class="cls-2" d="M51.15,709.47c-3.2,0-5.79-2.59-5.79-5.79s2.59-5.79,5.79-5.79,5.79,2.59,5.79,5.79-2.59,5.79-5.79,5.79Z"/>
            <path class="cls-2" d="M28.96,710.9c-3.43,0-6.2-2.78-6.2-6.2s2.78-6.2,6.2-6.2,6.2,2.78,6.2,6.2-2.78,6.2-6.2,6.2Z"/>
            <path class="cls-2" d="M6.62,712.34c-3.65,0-6.62-2.96-6.62-6.62s2.96-6.62,6.62-6.62,6.62,2.96,6.62,6.62-2.96,6.62-6.62,6.62Z"/>
          </g>
        </g>
        <g>
          <path class="cls-1" d="M672.64,171.68c-.46,0-.83-.37-.83-.83s.37-.83,.83-.83,.83,.37,.83,.83-.37,.83-.83,.83Z"/>
          <circle class="cls-1" cx="671.27" cy="148.71" r="1.65"/>
          <path class="cls-1" d="M669.89,129.05c-1.37,0-2.48-1.11-2.48-2.48s1.11-2.48,2.48-2.48,2.48,1.11,2.48,2.48-1.11,2.48-2.48,2.48Z"/>
          <circle class="cls-1" cx="668.52" cy="104.43" r="3.31"/>
          <path class="cls-1" d="M667.14,86.43c-2.28,0-4.14-1.85-4.14-4.14s1.85-4.14,4.14-4.14,4.14,1.85,4.14,4.14-1.85,4.14-4.14,4.14Z"/>
          <path class="cls-1" d="M665.77,65.12c-2.74,0-4.96-2.22-4.96-4.96s2.22-4.96,4.96-4.96,4.96,2.22,4.96,4.96-2.22,4.96-4.96,4.96Z"/>
          <path class="cls-1" d="M664.39,43.81c-3.2,0-5.79-2.59-5.79-5.79s2.59-5.79,5.79-5.79,5.79,2.59,5.79,5.79-2.59,5.79-5.79,5.79Z"/>
          <path class="cls-1" d="M663.02,22.49c-3.65,0-6.62-2.96-6.62-6.62s2.96-6.62,6.62-6.62,6.62,2.96,6.62,6.62-2.96,6.62-6.62,6.62Z"/>
        </g>
      </g>
      <path class="cls-1" d="M641.43,512.22c-1.35,0-2.71-.52-3.74-1.55-2.07-2.07-2.07-5.42,0-7.49,13.91-13.91,32.41-21.58,52.09-21.58s38.17,7.66,52.09,21.58c2.07,2.07,2.07,5.42,0,7.49-2.07,2.07-5.42,2.07-7.49,0-11.91-11.91-27.75-18.47-44.6-18.47s-32.69,6.56-44.6,18.47c-1.03,1.03-2.39,1.55-3.74,1.55Z"/>
      <path class="cls-2" d="M600.92,471.7c-1.35,0-2.71-.52-3.74-1.55-2.07-2.07-2.07-5.42,0-7.49,51.06-51.06,134.15-51.06,185.21,0,2.07,2.07,2.07,5.42,0,7.49s-5.42,2.07-7.49,0c-46.93-46.93-123.3-46.93-170.24,0-1.03,1.03-2.39,1.55-3.74,1.55Z"/>
      <path class="cls-1" d="M819.16,431.18c-1.35,0-2.71-.52-3.74-1.55-69.28-69.28-182-69.27-251.27,0-2.07,2.07-5.42,2.07-7.49,0-2.07-2.07-2.07-5.42,0-7.49,35.56-35.56,82.84-55.14,133.12-55.14s97.56,19.58,133.12,55.14c2.07,2.07,2.07,5.42,0,7.49-1.03,1.03-2.39,1.55-3.74,1.55Z"/>
    </g>
  </g>
</svg>